<svg preserveAspectRatio="none" width="100%" height="100%" overflow="visible" style="display: block;" viewBox="0 0 27.9914 27.9914" fill="none" xmlns="http://www.w3.org/2000/svg">
<g id="Icon">
<path id="Vector" d="M4.66524 2.33262V25.6588L6.99786 24.4925L9.33048 25.6588L11.6631 24.4925L13.9957 25.6588L16.3283 24.4925L18.661 25.6588L20.9936 24.4925L23.3262 25.6588V2.33262L20.9936 3.49893L18.661 2.33262L16.3283 3.49893L13.9957 2.33262L11.6631 3.49893L9.33048 2.33262L6.99786 3.49893L4.66524 2.33262Z" stroke="var(--stroke-0, white)" stroke-width="2.33262" stroke-linecap="round" stroke-linejoin="round"/>
<path id="Vector_2" d="M18.661 9.33048H11.6631C11.0444 9.33048 10.4511 9.57623 10.0137 10.0137C9.57623 10.4511 9.33048 11.0444 9.33048 11.6631C9.33048 12.2817 9.57623 12.8751 10.0137 13.3125C10.4511 13.75 11.0444 13.9957 11.6631 13.9957H16.3283C16.947 13.9957 17.5403 14.2415 17.9777 14.6789C18.4152 15.1164 18.661 15.7097 18.661 16.3283C18.661 16.947 18.4152 17.5403 17.9777 17.9777C17.5403 18.4152 16.947 18.661 16.3283 18.661H9.33048" stroke="var(--stroke-0, white)" stroke-width="2.33262" stroke-linecap="round" stroke-linejoin="round"/>
<path id="Vector_3" d="M13.9957 20.4104V7.58101" stroke="var(--stroke-0, white)" stroke-width="2.33262" stroke-linecap="round" stroke-linejoin="round"/>
</g>
</svg>
