<svg preserveAspectRatio="none" width="100%" height="100%" overflow="visible" style="display: block;" viewBox="0 0 23.995 23.995" fill="none" xmlns="http://www.w3.org/2000/svg">
<g id="Icon">
<path id="Vector" d="M10.2659 20.9956C10.4414 21.2996 10.6939 21.5521 10.9979 21.7276C11.3019 21.9031 11.6468 21.9955 11.9979 21.9955C12.3489 21.9955 12.6938 21.9031 12.9978 21.7276C13.3018 21.5521 13.5543 21.2996 13.7299 20.9956" stroke="var(--stroke-0, white)" stroke-width="1.99958" stroke-linecap="round" stroke-linejoin="round"/>
<path id="Vector_2" d="M3.26132 15.3228C3.13071 15.466 3.04452 15.644 3.01323 15.8352C2.98194 16.0265 3.00689 16.2227 3.08506 16.4C3.16323 16.5773 3.29125 16.7281 3.45354 16.834C3.61582 16.9399 3.80539 16.9963 3.99917 16.9965H19.9958C20.1896 16.9965 20.3792 16.9403 20.5416 16.8346C20.704 16.7289 20.8321 16.5783 20.9105 16.4011C20.9889 16.2239 21.0141 16.0277 20.9831 15.8365C20.952 15.6452 20.8661 15.4671 20.7357 15.3238C19.406 13.9531 17.9962 12.4964 17.9962 7.99833C17.9962 6.40736 17.3642 4.88156 16.2393 3.75658C15.1143 2.63159 13.5885 1.99958 11.9975 1.99958C10.4065 1.99958 8.88073 2.63159 7.75574 3.75658C6.63076 4.88156 5.99875 6.40736 5.99875 7.99833C5.99875 12.4964 4.58804 13.9531 3.26132 15.3228Z" stroke="var(--stroke-0, white)" stroke-width="1.99958" stroke-linecap="round" stroke-linejoin="round"/>
</g>
</svg>
