<svg preserveAspectRatio="none" width="100%" height="100%" overflow="visible" style="display: block;" viewBox="0 0 23.995 23.995" fill="none" xmlns="http://www.w3.org/2000/svg">
<g id="Icon">
<path id="Vector" d="M15.9967 20.9956V18.996C15.9967 17.9354 15.5753 16.9182 14.8253 16.1682C14.0753 15.4182 13.0581 14.9969 11.9975 14.9969H5.99875C4.9381 14.9969 3.9209 15.4182 3.17091 16.1682C2.42092 16.9182 1.99958 17.9354 1.99958 18.996V20.9956" stroke="var(--stroke-0, #155DFC)" stroke-width="1.99958" stroke-linecap="round" stroke-linejoin="round"/>
<path id="Vector_2" d="M8.99812 10.9977C11.2068 10.9977 12.9973 9.20722 12.9973 6.99854C12.9973 4.78986 11.2068 2.99937 8.99812 2.99937C6.78945 2.99937 4.99896 4.78986 4.99896 6.99854C4.99896 9.20722 6.78945 10.9977 8.99812 10.9977Z" stroke="var(--stroke-0, #155DFC)" stroke-width="1.99958" stroke-linecap="round" stroke-linejoin="round"/>
<path id="Vector_3" d="M21.9954 20.9956V18.996C21.9948 18.11 21.6998 17.2492 21.157 16.5489C20.6141 15.8486 19.854 15.3484 18.996 15.1268" stroke="var(--stroke-0, #155DFC)" stroke-width="1.99958" stroke-linecap="round" stroke-linejoin="round"/>
<path id="Vector_4" d="M15.9967 3.12935C16.8569 3.3496 17.6194 3.8499 18.1638 4.55136C18.7083 5.25282 19.0039 6.11555 19.0039 7.00354C19.0039 7.89152 18.7083 8.75425 18.1638 9.45572C17.6194 10.1572 16.8569 10.6575 15.9967 10.8777" stroke="var(--stroke-0, #155DFC)" stroke-width="1.99958" stroke-linecap="round" stroke-linejoin="round"/>
</g>
</svg>
