<svg preserveAspectRatio="none" width="100%" height="100%" overflow="visible" style="display: block;" viewBox="0 0 19.9986 19.9986" fill="none" xmlns="http://www.w3.org/2000/svg">
<g id="Icon" clip-path="url(#clip0_102_280)">
<path id="Vector" d="M16.6655 10.8326C16.6655 14.9989 13.749 17.0821 10.2826 18.2903C10.1011 18.3519 9.9039 18.3489 9.7243 18.282C6.24955 17.0821 3.33309 14.9989 3.33309 10.8326V4.99964C3.33309 4.77864 3.42088 4.5667 3.57715 4.41043C3.73342 4.25416 3.94537 4.16637 4.16637 4.16637C5.83291 4.16637 7.9161 3.16644 9.36599 1.89986C9.54253 1.74904 9.76709 1.66617 9.99928 1.66617C10.2315 1.66617 10.456 1.74904 10.6326 1.89986C12.0908 3.17477 14.1656 4.16637 15.8322 4.16637C16.0532 4.16637 16.2651 4.25416 16.4214 4.41043C16.5777 4.5667 16.6655 4.77864 16.6655 4.99964V10.8326Z" stroke="var(--stroke-0, #155DFC)" stroke-width="1.66655" stroke-linecap="round" stroke-linejoin="round"/>
</g>
<defs>
<clipPath id="clip0_102_280">
<rect width="19.9986" height="19.9986" fill="white"/>
</clipPath>
</defs>
</svg>
