<svg preserveAspectRatio="none" width="100%" height="100%" overflow="visible" style="display: block;" viewBox="0 0 31.9879 31.9879" fill="none" xmlns="http://www.w3.org/2000/svg">
<g id="Icon">
<path id="Vector" d="M14.6611 2.66566V5.33131" stroke="var(--stroke-0, white)" stroke-width="2.66566" stroke-linecap="round" stroke-linejoin="round"/>
<path id="Vector_2" d="M6.66414 2.66566V5.33131" stroke="var(--stroke-0, white)" stroke-width="2.66566" stroke-linecap="round" stroke-linejoin="round"/>
<path id="Vector_3" d="M6.66414 3.99848H5.33131C4.62434 3.99848 3.94632 4.27933 3.44641 4.77924C2.9465 5.27914 2.66566 5.95716 2.66566 6.66414V11.9955C2.66566 14.1164 3.50819 16.1504 5.00791 17.6502C6.50764 19.1499 8.54169 19.9924 10.6626 19.9924C12.7835 19.9924 14.8176 19.1499 16.3173 17.6502C17.8171 16.1504 18.6596 14.1164 18.6596 11.9955V6.66414C18.6596 5.95716 18.3787 5.27914 17.8788 4.77924C17.3789 4.27933 16.7009 3.99848 15.9939 3.99848H14.6611" stroke="var(--stroke-0, white)" stroke-width="2.66566" stroke-linecap="round" stroke-linejoin="round"/>
<path id="Vector_4" d="M10.6626 19.9924C10.6626 22.1133 11.5052 24.1474 13.0049 25.6471C14.5046 27.1468 16.5387 27.9894 18.6596 27.9894C20.7805 27.9894 22.8146 27.1468 24.3143 25.6471C25.814 24.1474 26.6566 22.1133 26.6566 19.9924V15.9939" stroke="var(--stroke-0, white)" stroke-width="2.66566" stroke-linecap="round" stroke-linejoin="round"/>
<path id="Vector_5" d="M26.6566 15.9939C28.1288 15.9939 29.3222 14.8005 29.3222 13.3283C29.3222 11.8561 28.1288 10.6626 26.6566 10.6626C25.1844 10.6626 23.9909 11.8561 23.9909 13.3283C23.9909 14.8005 25.1844 15.9939 26.6566 15.9939Z" stroke="var(--stroke-0, white)" stroke-width="2.66566" stroke-linecap="round" stroke-linejoin="round"/>
</g>
</svg>
