<svg preserveAspectRatio="none" width="100%" height="100%" overflow="visible" style="display: block;" viewBox="0 0 19.9958 20.9951" fill="none" xmlns="http://www.w3.org/2000/svg">
<path id="Vector" d="M0.999792 8.9976C0.999722 8.70673 1.06311 8.41935 1.18554 8.1555C1.30797 7.89164 1.48649 7.65768 1.70864 7.46992L8.70718 1.47217C9.06809 1.16714 9.52537 0.999791 9.99791 0.999791C10.4705 0.999791 10.9277 1.16714 11.2886 1.47217L18.2872 7.46992C18.5093 7.65768 18.6879 7.89164 18.8103 8.1555C18.9327 8.41935 18.9961 8.70673 18.996 8.9976V17.9957C18.996 18.526 18.7854 19.0347 18.4104 19.4096C18.0354 19.7846 17.5268 19.9953 16.9965 19.9953H2.99937C2.46905 19.9953 1.96045 19.7846 1.58546 19.4096C1.21046 19.0347 0.999792 18.526 0.999792 17.9957V8.9976Z" stroke="var(--stroke-0, #155DFC)" stroke-width="1.99958" stroke-linecap="round" stroke-linejoin="round"/>
</svg>
