<svg preserveAspectRatio="none" width="100%" height="100%" overflow="visible" style="display: block;" viewBox="0 0 15.9857 15.9857" fill="none" xmlns="http://www.w3.org/2000/svg">
<g id="Icon" clip-path="url(#clip0_102_17)">
<path id="Vector" d="M14.6536 7.99287H13.0017C12.7106 7.99225 12.4274 8.08699 12.1952 8.26261C11.9631 8.43823 11.7948 8.68505 11.7162 8.96534L10.1509 14.5337C10.1409 14.5683 10.1198 14.5987 10.091 14.6203C10.0622 14.6419 10.0271 14.6536 9.99109 14.6536C9.95506 14.6536 9.92 14.6419 9.89118 14.6203C9.86236 14.5987 9.84132 14.5683 9.83123 14.5337L6.15451 1.45204C6.14442 1.41745 6.12339 1.38707 6.09456 1.36545C6.06574 1.34383 6.03068 1.33215 5.99465 1.33215C5.95862 1.33215 5.92357 1.34383 5.89474 1.36545C5.86592 1.38707 5.84489 1.41745 5.8348 1.45204L4.26953 7.02041C4.19124 7.29959 4.024 7.54562 3.79319 7.72112C3.56239 7.89663 3.28062 7.99204 2.99067 7.99287H1.33215" stroke="var(--stroke-0, white)" stroke-width="1.33215" stroke-linecap="round" stroke-linejoin="round"/>
</g>
<defs>
<clipPath id="clip0_102_17">
<rect width="15.9857" height="15.9857" fill="white"/>
</clipPath>
</defs>
</svg>
