<svg preserveAspectRatio="none" width="100%" height="100%" overflow="visible" style="display: block;" viewBox="0 0 55.9992 55.9992" fill="none" xmlns="http://www.w3.org/2000/svg">
<g id="Icon">
<path id="Vector" d="M25.6663 4.6666V9.33321" stroke="var(--stroke-0, white)" stroke-width="4.6666" stroke-linecap="round" stroke-linejoin="round"/>
<path id="Vector_2" d="M11.6665 4.6666V9.33321" stroke="var(--stroke-0, white)" stroke-width="4.6666" stroke-linecap="round" stroke-linejoin="round"/>
<path id="Vector_3" d="M11.6665 6.9999H9.33321C8.09555 6.9999 6.90858 7.49156 6.03342 8.36672C5.15826 9.24188 4.6666 10.4288 4.6666 11.6665V20.9997C4.6666 24.7127 6.14158 28.2736 8.76705 30.8991C11.3925 33.5245 14.9534 34.9995 18.6664 34.9995C22.3794 34.9995 25.9403 33.5245 28.5658 30.8991C31.1912 28.2736 32.6662 24.7127 32.6662 20.9997V11.6665C32.6662 10.4288 32.1746 9.24188 31.2994 8.36672C30.4242 7.49156 29.2373 6.9999 27.9996 6.9999H25.6663" stroke="var(--stroke-0, white)" stroke-width="4.6666" stroke-linecap="round" stroke-linejoin="round"/>
<path id="Vector_4" d="M18.6664 34.9995C18.6664 38.7125 20.1414 42.2734 22.7669 44.8989C25.3923 47.5244 28.9532 48.9993 32.6662 48.9993C36.3792 48.9993 39.9401 47.5244 42.5656 44.8989C45.1911 42.2734 46.666 38.7125 46.666 34.9995V27.9996" stroke="var(--stroke-0, white)" stroke-width="4.6666" stroke-linecap="round" stroke-linejoin="round"/>
<path id="Vector_5" d="M46.666 27.9996C49.2433 27.9996 51.3326 25.9103 51.3326 23.333C51.3326 20.7557 49.2433 18.6664 46.666 18.6664C44.0887 18.6664 41.9994 20.7557 41.9994 23.333C41.9994 25.9103 44.0887 27.9996 46.666 27.9996Z" stroke="var(--stroke-0, white)" stroke-width="4.6666" stroke-linecap="round" stroke-linejoin="round"/>
</g>
</svg>
