<svg preserveAspectRatio="none" width="100%" height="100%" overflow="visible" style="display: block;" viewBox="0 0 13.9875 13.9875" fill="none" xmlns="http://www.w3.org/2000/svg">
<g id="Icon" clip-path="url(#clip0_102_165)">
<path id="Vector" d="M12.8219 6.99376H11.3765C11.1218 6.99322 10.8739 7.07612 10.6708 7.22978C10.4677 7.38345 10.3205 7.59942 10.2517 7.84467L8.88208 12.717C8.87325 12.7473 8.85485 12.7738 8.82963 12.7928C8.80441 12.8117 8.77373 12.8219 8.7422 12.8219C8.71068 12.8219 8.68 12.8117 8.65478 12.7928C8.62956 12.7738 8.61116 12.7473 8.60233 12.717L5.3852 1.27053C5.37637 1.24027 5.35797 1.21368 5.33274 1.19477C5.30752 1.17585 5.27685 1.16563 5.24532 1.16563C5.2138 1.16563 5.18312 1.17585 5.1579 1.19477C5.13268 1.21368 5.11427 1.24027 5.10545 1.27053L3.73584 6.14286C3.66733 6.38714 3.521 6.60241 3.31904 6.75598C3.11709 6.90955 2.87054 6.99304 2.61683 6.99376H1.16563" stroke="var(--stroke-0, #6A7282)" stroke-width="1.16563" stroke-linecap="round" stroke-linejoin="round"/>
</g>
<defs>
<clipPath id="clip0_102_165">
<rect width="13.9875" height="13.9875" fill="white"/>
</clipPath>
</defs>
</svg>
