<svg preserveAspectRatio="none" width="100%" height="100%" overflow="visible" style="display: block;" viewBox="0 0 15.9857 15.9857" fill="none" xmlns="http://www.w3.org/2000/svg">
<g id="Icon">
<path id="Vector" d="M10.1243 1.99822C10.4757 2.00322 10.8109 2.14687 11.0568 2.39786L13.5879 4.92894C13.8389 5.17489 13.9825 5.51006 13.9875 5.86144V12.6554C13.9875 13.0087 13.8472 13.3475 13.5973 13.5973C13.3475 13.8472 13.0087 13.9875 12.6554 13.9875H3.33036C2.97706 13.9875 2.63822 13.8472 2.38839 13.5973C2.13857 13.3475 1.99822 13.0087 1.99822 12.6554V3.33036C1.99822 2.97706 2.13857 2.63822 2.38839 2.38839C2.63822 2.13857 2.97706 1.99822 3.33036 1.99822H10.1243Z" stroke="var(--stroke-0, white)" stroke-width="1.33215" stroke-linecap="round" stroke-linejoin="round"/>
<path id="Vector_2" d="M11.3232 13.9875V9.32502C11.3232 9.14836 11.2531 8.97895 11.1281 8.85403C11.0032 8.72912 10.8338 8.65895 10.6572 8.65895H5.32858C5.15193 8.65895 4.98251 8.72912 4.8576 8.85403C4.73268 8.97895 4.66251 9.14836 4.66251 9.32502V13.9875" stroke="var(--stroke-0, white)" stroke-width="1.33215" stroke-linecap="round" stroke-linejoin="round"/>
<path id="Vector_3" d="M4.66251 1.99822V4.66251C4.66251 4.83916 4.73268 5.00858 4.8576 5.13349C4.98251 5.25841 5.15193 5.32858 5.32858 5.32858H9.99109" stroke="var(--stroke-0, white)" stroke-width="1.33215" stroke-linecap="round" stroke-linejoin="round"/>
</g>
</svg>
