<svg preserveAspectRatio="none" width="100%" height="100%" overflow="visible" style="display: block;" viewBox="0 0 27.9914 27.9914" fill="none" xmlns="http://www.w3.org/2000/svg">
<g id="Icon">
<path id="Vector" d="M18.661 24.4925V22.1599C18.661 20.9226 18.1694 19.736 17.2945 18.8611C16.4196 17.9862 15.233 17.4946 13.9957 17.4946H6.99786C5.76056 17.4946 4.57394 17.9862 3.69904 18.8611C2.82413 19.736 2.33262 20.9226 2.33262 22.1599V24.4925" stroke="var(--stroke-0, #155DFC)" stroke-width="2.33262" stroke-linecap="round" stroke-linejoin="round"/>
<path id="Vector_2" d="M10.4968 12.8294C13.0733 12.8294 15.162 10.7407 15.162 8.16417C15.162 5.58763 13.0733 3.49893 10.4968 3.49893C7.92025 3.49893 5.83155 5.58763 5.83155 8.16417C5.83155 10.7407 7.92025 12.8294 10.4968 12.8294Z" stroke="var(--stroke-0, #155DFC)" stroke-width="2.33262" stroke-linecap="round" stroke-linejoin="round"/>
<path id="Vector_3" d="M25.6588 24.4925V22.1599C25.658 21.1262 25.314 20.1221 24.6807 19.3051C24.0474 18.4882 23.1607 17.9047 22.1599 17.6463" stroke="var(--stroke-0, #155DFC)" stroke-width="2.33262" stroke-linecap="round" stroke-linejoin="round"/>
<path id="Vector_4" d="M18.661 3.65055C19.6645 3.90749 20.5539 4.49111 21.1891 5.3094C21.8243 6.1277 22.169 7.13412 22.169 8.17C22.169 9.20588 21.8243 10.2123 21.1891 11.0306C20.5539 11.8489 19.6645 12.4325 18.661 12.6894" stroke="var(--stroke-0, #155DFC)" stroke-width="2.33262" stroke-linecap="round" stroke-linejoin="round"/>
</g>
</svg>
