<svg preserveAspectRatio="none" width="100%" height="100%" overflow="visible" style="display: block;" viewBox="0 0 23.995 23.995" fill="none" xmlns="http://www.w3.org/2000/svg">
<g id="Icon">
<path id="Vector" d="M14.9969 1.99958H5.99875C5.46843 1.99958 4.95982 2.21025 4.58483 2.58525C4.20984 2.96024 3.99917 3.46884 3.99917 3.99917V19.9958C3.99917 20.5262 4.20984 21.0348 4.58483 21.4097C4.95982 21.7847 5.46843 21.9954 5.99875 21.9954H17.9962C18.5266 21.9954 19.0352 21.7847 19.4102 21.4097C19.7852 21.0348 19.9958 20.5262 19.9958 19.9958V6.99854L14.9969 1.99958Z" stroke="var(--stroke-0, #9810FA)" stroke-width="1.99958" stroke-linecap="round" stroke-linejoin="round"/>
<path id="Vector_2" d="M13.9971 1.99958V5.99875C13.9971 6.52907 14.2078 7.03767 14.5827 7.41267C14.9577 7.78766 15.4663 7.99833 15.9967 7.99833H19.9958" stroke="var(--stroke-0, #9810FA)" stroke-width="1.99958" stroke-linecap="round" stroke-linejoin="round"/>
<path id="Vector_3" d="M9.99833 8.99812H7.99833" stroke="var(--stroke-0, #9810FA)" stroke-width="1.99958" stroke-linecap="round" stroke-linejoin="round"/>
<path id="Vector_4" d="M15.9967 12.9973H7.99833" stroke="var(--stroke-0, #9810FA)" stroke-width="1.99958" stroke-linecap="round" stroke-linejoin="round"/>
<path id="Vector_5" d="M15.9967 16.9965H7.99833" stroke="var(--stroke-0, #9810FA)" stroke-width="1.99958" stroke-linecap="round" stroke-linejoin="round"/>
</g>
</svg>
