<svg preserveAspectRatio="none" width="100%" height="100%" overflow="visible" style="display: block;" viewBox="0 0 11.9893 11.9893" fill="none" xmlns="http://www.w3.org/2000/svg">
<g id="Icon" clip-path="url(#clip0_102_137)">
<path id="Vector" d="M7.49332 0.999109H2.99733C2.73235 0.999109 2.47822 1.10437 2.29085 1.29174C2.10348 1.47911 1.99822 1.73324 1.99822 1.99822V9.99109C1.99822 10.2561 2.10348 10.5102 2.29085 10.6976C2.47822 10.8849 2.73235 10.9902 2.99733 10.9902H8.99198C9.25696 10.9902 9.51109 10.8849 9.69846 10.6976C9.88583 10.5102 9.99109 10.2561 9.99109 9.99109V3.49688L7.49332 0.999109Z" stroke="var(--stroke-0, #1447E6)" stroke-width="0.999109" stroke-linecap="round" stroke-linejoin="round"/>
<path id="Vector_2" d="M6.99376 0.999109V2.99733C6.99376 3.26231 7.09903 3.51643 7.2864 3.7038C7.47376 3.89117 7.72789 3.99644 7.99287 3.99644H9.99109" stroke="var(--stroke-0, #1447E6)" stroke-width="0.999109" stroke-linecap="round" stroke-linejoin="round"/>
<path id="Vector_3" d="M4.99555 4.49599H3.99644" stroke="var(--stroke-0, #1447E6)" stroke-width="0.999109" stroke-linecap="round" stroke-linejoin="round"/>
<path id="Vector_4" d="M7.99287 6.49421H3.99644" stroke="var(--stroke-0, #1447E6)" stroke-width="0.999109" stroke-linecap="round" stroke-linejoin="round"/>
<path id="Vector_5" d="M7.99287 8.49243H3.99644" stroke="var(--stroke-0, #1447E6)" stroke-width="0.999109" stroke-linecap="round" stroke-linejoin="round"/>
</g>
<defs>
<clipPath id="clip0_102_137">
<rect width="11.9893" height="11.9893" fill="white"/>
</clipPath>
</defs>
</svg>
