<svg preserveAspectRatio="none" width="100%" height="100%" overflow="visible" style="display: block;" viewBox="0 0 23.998 23.998" fill="none" xmlns="http://www.w3.org/2000/svg">
<g id="Icon">
<path id="Vector" d="M15.9986 20.9982V18.9984C15.9986 17.9376 15.5772 16.9203 14.8272 16.1702C14.0771 15.4201 13.0598 14.9987 11.999 14.9987H5.99949C4.93871 14.9987 3.92138 15.4201 3.1713 16.1702C2.42122 16.9203 1.99983 17.9376 1.99983 18.9984V20.9982" stroke="var(--stroke-0, #155DFC)" stroke-width="1.99983" stroke-linecap="round" stroke-linejoin="round"/>
<path id="Vector_2" d="M8.99957 10.9997C11.2087 10.9997 12.9996 9.20888 12.9996 6.99974C12.9996 4.7906 11.2087 2.99974 8.99957 2.99974C6.79043 2.99974 4.99957 4.7906 4.99957 6.99974C4.99957 9.20888 6.79043 10.9997 8.99957 10.9997Z" stroke="var(--stroke-0, #155DFC)" stroke-width="1.99983" stroke-linecap="round" stroke-linejoin="round"/>
<path id="Vector_3" d="M21.9984 20.9987V18.9987C21.9977 18.1124 21.7027 17.2515 21.1597 16.551C20.6168 15.8506 19.8565 15.3503 18.9984 15.1287" stroke="var(--stroke-0, #155DFC)" stroke-width="1.99983" stroke-linecap="round" stroke-linejoin="round"/>
<path id="Vector_4" d="M15.9986 3.12973C16.859 3.35003 17.6217 3.85043 18.1663 4.55204C18.7109 5.25365 19.0065 6.11656 19.0065 7.00473C19.0065 7.8929 18.7109 8.75581 18.1663 9.45742C17.6217 10.159 16.859 10.6594 15.9986 10.8797" stroke="var(--stroke-0, #155DFC)" stroke-width="1.99983" stroke-linecap="round" stroke-linejoin="round"/>
</g>
</svg>
