<svg preserveAspectRatio="none" width="100%" height="100%" overflow="visible" style="display: block;" viewBox="0 0 19.9983 20.9977" fill="none" xmlns="http://www.w3.org/2000/svg">
<path id="Vector" d="M0.999915 8.99871C0.999845 8.7078 1.06324 8.42038 1.18569 8.1565C1.30813 7.89262 1.48667 7.65862 1.70885 7.47084L8.70826 1.47235C9.06921 1.16729 9.52654 0.999915 9.99915 0.999915C10.4717 0.999915 10.9291 1.16729 11.29 1.47235L18.2894 7.47084C18.5116 7.65862 18.6902 7.89262 18.8126 8.1565C18.935 8.42038 18.9984 8.7078 18.9984 8.99871V17.9979C18.9984 18.5283 18.7877 19.037 18.4126 19.412C18.0376 19.7871 17.5289 19.9978 16.9985 19.9978H2.99974C2.46936 19.9978 1.96069 19.7871 1.58565 19.412C1.21061 19.037 0.999915 18.5283 0.999915 17.9979V8.99871Z" stroke="var(--stroke-0, #E7000B)" stroke-width="1.99983" stroke-linecap="round" stroke-linejoin="round"/>
</svg>
