<svg preserveAspectRatio="none" width="100%" height="100%" overflow="visible" style="display: block;" viewBox="0 0 11.9893 11.9893" fill="none" xmlns="http://www.w3.org/2000/svg">
<g id="Icon" clip-path="url(#clip0_112_480)">
<path id="Vector" d="M10.8908 4.99554C11.1189 6.1152 10.9563 7.27922 10.4301 8.2935C9.90391 9.30778 9.04588 10.111 7.99912 10.5692C6.95237 11.0275 5.78016 11.113 4.67798 10.8115C3.5758 10.5101 2.61027 9.83992 1.94241 8.91276C1.27454 7.9856 0.944719 6.8575 1.00793 5.71659C1.07115 4.57569 1.52358 3.49093 2.28978 2.64323C3.05599 1.79552 4.08964 1.23611 5.21838 1.05828C6.34711 0.880453 7.5027 1.09495 8.49243 1.66601" stroke="var(--stroke-0, #007A55)" stroke-width="0.999109" stroke-linecap="round" stroke-linejoin="round"/>
<path id="Vector_2" d="M4.49599 5.4951L5.99465 6.99376L10.9902 1.99822" stroke="var(--stroke-0, #007A55)" stroke-width="0.999109" stroke-linecap="round" stroke-linejoin="round"/>
</g>
<defs>
<clipPath id="clip0_112_480">
<rect width="11.9893" height="11.9893" fill="white"/>
</clipPath>
</defs>
</svg>
