<svg preserveAspectRatio="none" width="100%" height="100%" overflow="visible" style="display: block;" viewBox="0 0 19.9986 19.9986" fill="none" xmlns="http://www.w3.org/2000/svg">
<g id="Icon" clip-path="url(#clip0_112_433)">
<path id="Vector" d="M8.74937 17.0821L17.0821 8.74937C17.4715 8.36779 17.7813 7.91281 17.9938 7.41073C18.2062 6.90866 18.317 6.36945 18.3198 5.82428C18.3225 5.27912 18.2172 4.73882 18.0098 4.23463C17.8025 3.73043 17.4972 3.27234 17.1117 2.88685C16.7262 2.50135 16.2681 2.1961 15.7639 1.98875C15.2597 1.7814 14.7194 1.67605 14.1743 1.6788C13.6291 1.68156 13.0899 1.79235 12.5878 2.00479C12.0858 2.21723 11.6308 2.52709 11.2492 2.91646L2.91646 11.2492C2.52709 11.6308 2.21723 12.0858 2.00479 12.5878C1.79235 13.0899 1.68156 13.6291 1.6788 14.1743C1.67605 14.7194 1.7814 15.2597 1.98875 15.7639C2.1961 16.2681 2.50135 16.7262 2.88685 17.1117C3.27234 17.4972 3.73043 17.8025 4.23463 18.0098C4.73882 18.2172 5.27912 18.3225 5.82428 18.3198C6.36945 18.317 6.90866 18.2062 7.41073 17.9938C7.91281 17.7813 8.36779 17.4715 8.74937 17.0821Z" stroke="var(--stroke-0, #009966)" stroke-width="1.66655" stroke-linecap="round" stroke-linejoin="round"/>
<path id="Vector_2" d="M7.08282 7.08282L12.9157 12.9157" stroke="var(--stroke-0, #009966)" stroke-width="1.66655" stroke-linecap="round" stroke-linejoin="round"/>
</g>
<defs>
<clipPath id="clip0_112_433">
<rect width="19.9986" height="19.9986" fill="white"/>
</clipPath>
</defs>
</svg>
