<svg preserveAspectRatio="none" width="100%" height="100%" overflow="visible" style="display: block;" viewBox="0 0 15.9986 15.9986" fill="none" xmlns="http://www.w3.org/2000/svg">
<g id="Icon" clip-path="url(#clip0_134_47)">
<path id="Vector" d="M14.6654 11.279V13.2789C14.6662 13.4645 14.6281 13.6483 14.5538 13.8184C14.4794 13.9885 14.3703 14.1412 14.2335 14.2667C14.0967 14.3922 13.9352 14.4878 13.7593 14.5472C13.5835 14.6067 13.3971 14.6288 13.2122 14.6121C11.1609 14.3892 9.19055 13.6883 7.45936 12.5656C5.84872 11.5421 4.48317 10.1766 3.4597 8.56594C2.33312 6.82689 1.63202 4.84692 1.41321 2.78643C1.39655 2.60209 1.41846 2.4163 1.47754 2.24089C1.53662 2.06548 1.63157 1.9043 1.75636 1.7676C1.88115 1.6309 2.03303 1.52168 2.20234 1.44689C2.37165 1.37211 2.55468 1.33339 2.73977 1.33322H4.7396C5.06311 1.33004 5.37674 1.4446 5.62203 1.65555C5.86732 1.8665 6.02754 2.15945 6.07281 2.47979C6.15722 3.11978 6.31376 3.74816 6.53944 4.35296C6.62913 4.59156 6.64854 4.85086 6.59537 5.10015C6.54221 5.34944 6.41869 5.57826 6.23947 5.75951L5.39287 6.6061C6.34183 8.27499 7.72364 9.65681 9.39253 10.6058L10.2391 9.75917C10.4204 9.57994 10.6492 9.45643 10.8985 9.40326C11.1478 9.35009 11.4071 9.3695 11.6457 9.45919C12.2505 9.68487 12.8789 9.84141 13.5188 9.92582C13.8427 9.9715 14.1384 10.1346 14.3498 10.3841C14.5612 10.6336 14.6735 10.9521 14.6654 11.279Z" stroke="var(--stroke-0, #4A5565)" stroke-width="1.33322" stroke-linecap="round" stroke-linejoin="round"/>
</g>
<defs>
<clipPath id="clip0_134_47">
<rect width="15.9986" height="15.9986" fill="white"/>
</clipPath>
</defs>
</svg>
