<svg preserveAspectRatio="none" width="100%" height="100%" overflow="visible" style="display: block;" viewBox="0 0 23.998 23.998" fill="none" xmlns="http://www.w3.org/2000/svg">
<g id="Icon">
<path id="Vector" d="M10.9991 1.99983V3.99983" stroke="var(--stroke-0, #155DFC)" stroke-width="1.99983" stroke-linecap="round" stroke-linejoin="round"/>
<path id="Vector_2" d="M4.99957 1.99983V3.99983" stroke="var(--stroke-0, #155DFC)" stroke-width="1.99983" stroke-linecap="round" stroke-linejoin="round"/>
<path id="Vector_3" d="M4.99957 2.99974H3.99966C3.46927 2.99974 2.96061 3.21044 2.58557 3.58548C2.21052 3.96052 1.99983 4.46919 1.99983 4.99957V8.99923C1.99983 10.5904 2.63192 12.1164 3.75704 13.2415C4.88216 14.3666 6.40815 14.9987 7.99932 14.9987C9.59048 14.9987 11.1165 14.3666 12.2416 13.2415C13.3667 12.1164 13.9988 10.5904 13.9988 8.99923V4.99957C13.9988 4.46919 13.7881 3.96052 13.4131 3.58548C13.038 3.21044 12.5294 2.99974 11.999 2.99974H10.9991" stroke="var(--stroke-0, #155DFC)" stroke-width="1.99983" stroke-linecap="round" stroke-linejoin="round"/>
<path id="Vector_4" d="M7.99932 14.9987C7.99932 16.5899 8.6314 18.1159 9.75653 19.241C10.8816 20.3661 12.4076 20.9982 13.9988 20.9982C15.59 20.9982 17.116 20.3661 18.2411 19.241C19.3662 18.1159 19.9983 16.5899 19.9983 14.9987V11.999" stroke="var(--stroke-0, #155DFC)" stroke-width="1.99983" stroke-linecap="round" stroke-linejoin="round"/>
<path id="Vector_5" d="M19.9985 11.9993C21.103 11.9993 21.9985 11.1039 21.9985 9.99932C21.9985 8.89475 21.103 7.99932 19.9985 7.99932C18.8939 7.99932 17.9985 8.89475 17.9985 9.99932C17.9985 11.1039 18.8939 11.9993 19.9985 11.9993Z" stroke="var(--stroke-0, #155DFC)" stroke-width="1.99983" stroke-linecap="round" stroke-linejoin="round"/>
</g>
</svg>
