<svg preserveAspectRatio="none" width="100%" height="100%" overflow="visible" style="display: block;" viewBox="0 0 15.9986 15.9986" fill="none" xmlns="http://www.w3.org/2000/svg">
<g id="Icon" clip-path="url(#clip0_134_44)">
<path id="Vector" d="M14.6654 7.99932H13.0122C12.7209 7.99869 12.4374 8.09351 12.205 8.26927C11.9727 8.44503 11.8043 8.69206 11.7257 8.97257L10.1591 14.5454C10.149 14.58 10.128 14.6104 10.0991 14.6321C10.0703 14.6537 10.0352 14.6654 9.99915 14.6654C9.96309 14.6654 9.928 14.6537 9.89916 14.6321C9.87031 14.6104 9.84926 14.58 9.83916 14.5454L6.15947 1.45321C6.14938 1.41859 6.12833 1.38819 6.09948 1.36655C6.07063 1.34491 6.03555 1.33322 5.99949 1.33322C5.96343 1.33322 5.92834 1.34491 5.8995 1.36655C5.87065 1.38819 5.8496 1.41859 5.8395 1.45321L4.27297 7.02607C4.19462 7.30548 4.02724 7.5517 3.79625 7.72735C3.56526 7.903 3.28327 7.99849 2.99308 7.99932H1.33322" stroke="var(--stroke-0, #4A5565)" stroke-width="1.33322" stroke-linecap="round" stroke-linejoin="round"/>
</g>
<defs>
<clipPath id="clip0_134_44">
<rect width="15.9986" height="15.9986" fill="white"/>
</clipPath>
</defs>
</svg>
