<svg preserveAspectRatio="none" width="100%" height="100%" overflow="visible" style="display: block;" viewBox="0 0 19.9983 19.9983" fill="none" xmlns="http://www.w3.org/2000/svg">
<g id="Icon" clip-path="url(#clip0_125_51)">
<path id="Vector" d="M8.74925 17.0819L17.0819 8.74925C17.4712 8.36768 17.7811 7.9127 17.9935 7.41063C18.206 6.90856 18.3168 6.36936 18.3195 5.82421C18.3223 5.27905 18.2169 4.73876 18.0096 4.23457C17.8022 3.73038 17.497 3.2723 17.1115 2.88681C16.726 2.50132 16.2679 2.19608 15.7637 1.98872C15.2595 1.78137 14.7192 1.67603 14.1741 1.67878C13.6289 1.68153 13.0897 1.79233 12.5877 2.00476C12.0856 2.2172 11.6306 2.52706 11.249 2.91642L2.91642 11.249C2.52706 11.6306 2.2172 12.0856 2.00476 12.5877C1.79233 13.0897 1.68153 13.6289 1.67878 14.1741C1.67603 14.7192 1.78137 15.2595 1.98872 15.7637C2.19608 16.2679 2.50132 16.726 2.88681 17.1115C3.2723 17.497 3.73038 17.8022 4.23457 18.0096C4.73876 18.2169 5.27905 18.3223 5.82421 18.3195C6.36936 18.3168 6.90856 18.206 7.41063 17.9935C7.9127 17.7811 8.36768 17.4712 8.74925 17.0819Z" stroke="var(--stroke-0, #E7000B)" stroke-width="1.66652" stroke-linecap="round" stroke-linejoin="round"/>
<path id="Vector_2" d="M7.08273 7.08273L12.9156 12.9156" stroke="var(--stroke-0, #E7000B)" stroke-width="1.66652" stroke-linecap="round" stroke-linejoin="round"/>
</g>
<defs>
<clipPath id="clip0_125_51">
<rect width="19.9983" height="19.9983" fill="white"/>
</clipPath>
</defs>
</svg>
