<svg preserveAspectRatio="none" width="100%" height="100%" overflow="visible" style="display: block;" viewBox="0 0 19.9986 19.9986" fill="none" xmlns="http://www.w3.org/2000/svg">
<g id="Icon" clip-path="url(#clip0_108_370)">
<path id="Vector" d="M18.332 14.099V16.5988C18.333 16.8309 18.2854 17.0606 18.1924 17.2732C18.0995 17.4858 17.9631 17.6767 17.7921 17.8336C17.6211 17.9905 17.4192 18.1099 17.1994 18.1843C16.9795 18.2586 16.7466 18.2862 16.5155 18.2654C13.9514 17.9867 11.4883 17.1106 9.32433 15.7072C7.311 14.4278 5.60404 12.7209 4.32469 10.7076C2.91644 8.53372 2.04006 6.05873 1.76654 3.48308C1.74572 3.25265 1.7731 3.02042 1.84695 2.80115C1.9208 2.58189 2.0395 2.3804 2.19548 2.20953C2.35146 2.03865 2.54132 1.90212 2.75296 1.80864C2.9646 1.71516 3.19339 1.66676 3.42475 1.66655H5.92457C6.32897 1.66257 6.72101 1.80577 7.02763 2.06946C7.33425 2.33315 7.53452 2.69934 7.59112 3.09978C7.69663 3.89977 7.89231 4.68527 8.17441 5.44127C8.28652 5.73952 8.31079 6.06366 8.24433 6.37527C8.17787 6.68689 8.02348 6.97292 7.79944 7.19948L6.74118 8.25774C7.92739 10.3439 9.65468 12.0712 11.7408 13.2574L12.7991 12.1991C13.0256 11.9751 13.3117 11.8207 13.6233 11.7542C13.9349 11.6878 14.259 11.712 14.5573 11.8241C15.3133 12.1063 16.0988 12.3019 16.8988 12.4074C17.3036 12.4645 17.6732 12.6684 17.9375 12.9803C18.2017 13.2922 18.3422 13.6903 18.332 14.099Z" stroke="var(--stroke-0, #155DFC)" stroke-width="1.66655" stroke-linecap="round" stroke-linejoin="round"/>
</g>
<defs>
<clipPath id="clip0_108_370">
<rect width="19.9986" height="19.9986" fill="white"/>
</clipPath>
</defs>
</svg>
