<svg preserveAspectRatio="none" width="100%" height="100%" overflow="visible" style="display: block;" viewBox="0 0 23.998 23.998" fill="none" xmlns="http://www.w3.org/2000/svg">
<g id="Icon">
<path id="Vector" d="M14.9987 1.99983H5.99949C5.4691 1.99983 4.96044 2.21052 4.58539 2.58557C4.21035 2.96061 3.99966 3.46927 3.99966 3.99966V19.9983C3.99966 20.5287 4.21035 21.0373 4.58539 21.4124C4.96044 21.7874 5.4691 21.9981 5.99949 21.9981H17.9985C18.5289 21.9981 19.0375 21.7874 19.4126 21.4124C19.7876 21.0373 19.9983 20.5287 19.9983 19.9983V6.9994L14.9987 1.99983Z" stroke="var(--stroke-0, #9810FA)" stroke-width="1.99983" stroke-linecap="round" stroke-linejoin="round"/>
<path id="Vector_2" d="M13.9988 1.99983V5.99983C13.9988 6.53026 14.2095 7.03897 14.5846 7.41404C14.9597 7.78912 15.4684 7.99983 15.9988 7.99983H19.9988" stroke="var(--stroke-0, #9810FA)" stroke-width="1.99983" stroke-linecap="round" stroke-linejoin="round"/>
<path id="Vector_3" d="M9.99932 8.99923H7.99932" stroke="var(--stroke-0, #9810FA)" stroke-width="1.99983" stroke-linecap="round" stroke-linejoin="round"/>
<path id="Vector_4" d="M15.9993 12.9989H7.99932" stroke="var(--stroke-0, #9810FA)" stroke-width="1.99983" stroke-linecap="round" stroke-linejoin="round"/>
<path id="Vector_5" d="M15.9993 16.9985H7.99932" stroke="var(--stroke-0, #9810FA)" stroke-width="1.99983" stroke-linecap="round" stroke-linejoin="round"/>
</g>
</svg>
