<svg preserveAspectRatio="none" width="100%" height="100%" overflow="visible" style="display: block;" viewBox="0 0 12.8321 12.832" fill="none" xmlns="http://www.w3.org/2000/svg">
<path id="Vector" d="M11.7671 3.39027C12.0755 3.08196 12.2488 2.66377 12.2488 2.2277C12.2489 1.79163 12.0757 1.37339 11.7674 1.06501C11.4591 0.756619 11.0409 0.583338 10.6048 0.583284C10.1688 0.583229 9.75054 0.756405 9.44216 1.06471L1.65765 8.85097C1.52223 8.986 1.42207 9.15225 1.36601 9.33509L0.595494 11.8735C0.580419 11.924 0.579281 11.9776 0.592199 12.0286C0.605118 12.0796 0.631611 12.1262 0.668869 12.1634C0.706127 12.2006 0.752759 12.2271 0.803819 12.2399C0.854878 12.2527 0.90846 12.2515 0.95888 12.2363L3.49791 11.4664C3.68058 11.4109 3.84682 11.3113 3.98204 11.1765L11.7671 3.39027Z" stroke="var(--stroke-0, #155DFC)" stroke-width="1.16657" stroke-linecap="round" stroke-linejoin="round"/>
</svg>
