<svg preserveAspectRatio="none" width="100%" height="100%" overflow="visible" style="display: block;" viewBox="0 0 23.998 23.998" fill="none" xmlns="http://www.w3.org/2000/svg">
<g id="Icon">
<path id="Vector" d="M21.7281 17.9985L13.7288 3.99966C13.5544 3.69189 13.3015 3.43589 12.9958 3.25779C12.6902 3.07969 12.3427 2.98585 11.989 2.98585C11.6352 2.98585 11.2878 3.07969 10.9821 3.25779C10.6765 3.43589 10.4235 3.69189 10.2491 3.99966L2.24981 17.9985C2.07351 18.3038 1.98106 18.6503 1.98184 19.0029C1.98262 19.3555 2.0766 19.7016 2.25425 20.0061C2.43191 20.3107 2.68692 20.5628 2.99344 20.7371C3.29996 20.9113 3.6471 21.0014 3.99966 20.9982H19.9983C20.3492 20.9978 20.6938 20.9052 20.9975 20.7295C21.3012 20.5538 21.5534 20.3014 21.7287 19.9974C21.9039 19.6935 21.9962 19.3487 21.9961 18.9979C21.996 18.647 21.9036 18.3023 21.7281 17.9985Z" stroke="var(--stroke-0, #E7000B)" stroke-width="1.99983" stroke-linecap="round" stroke-linejoin="round"/>
<path id="Vector_2" d="M11.999 8.99923V12.9992" stroke="var(--stroke-0, #E7000B)" stroke-width="1.99983" stroke-linecap="round" stroke-linejoin="round"/>
<path id="Vector_3" d="M11.999 16.9985H12.009" stroke="var(--stroke-0, #E7000B)" stroke-width="1.99983" stroke-linecap="round" stroke-linejoin="round"/>
</g>
</svg>
