<svg preserveAspectRatio="none" width="100%" height="100%" overflow="visible" style="display: block;" viewBox="0 0 15.9857 15.9857" fill="none" xmlns="http://www.w3.org/2000/svg">
<g id="Icon" clip-path="url(#clip0_102_323)">
<path id="Vector" d="M7.99287 1.99822H3.33036C2.97706 1.99822 2.63822 2.13857 2.38839 2.38839C2.13857 2.63822 1.99822 2.97706 1.99822 3.33036V12.6554C1.99822 13.0087 2.13857 13.3475 2.38839 13.5973C2.63822 13.8472 2.97706 13.9875 3.33036 13.9875H12.6554C13.0087 13.9875 13.3475 13.8472 13.5973 13.5973C13.8472 13.3475 13.9875 13.0087 13.9875 12.6554V7.99287" stroke="var(--stroke-0, #1A1A1A)" stroke-width="1.33215" stroke-linecap="round" stroke-linejoin="round"/>
<path id="Vector_2" d="M12.2391 1.74844C12.5041 1.48346 12.8635 1.3346 13.2382 1.3346C13.6129 1.3346 13.9723 1.48346 14.2373 1.74844C14.5023 2.01342 14.6511 2.37281 14.6511 2.74755C14.6511 3.12229 14.5023 3.48168 14.2373 3.74666L8.23399 9.75064C8.07583 9.90866 7.88044 10.0243 7.66583 10.087L5.7522 10.6465C5.69489 10.6632 5.63413 10.6642 5.5763 10.6494C5.51847 10.6346 5.46568 10.6045 5.42346 10.5623C5.38125 10.5201 5.35115 10.4673 5.33634 10.4094C5.32152 10.3516 5.32252 10.2909 5.33924 10.2335L5.89874 8.31991C5.9617 8.10547 6.0776 7.91032 6.23577 7.75242L12.2391 1.74844Z" stroke="var(--stroke-0, #1A1A1A)" stroke-width="1.33215" stroke-linecap="round" stroke-linejoin="round"/>
</g>
<defs>
<clipPath id="clip0_102_323">
<rect width="15.9857" height="15.9857" fill="white"/>
</clipPath>
</defs>
</svg>
