<svg preserveAspectRatio="none" width="100%" height="100%" overflow="visible" style="display: block;" viewBox="0 0 11.9893 11.9893" fill="none" xmlns="http://www.w3.org/2000/svg">
<g id="Icon" clip-path="url(#clip0_112_470)">
<path id="Vector" d="M5.24532 10.2409L10.2409 5.24532C10.4743 5.01656 10.6601 4.7438 10.7874 4.4428C10.9148 4.1418 10.9812 3.81854 10.9829 3.49171C10.9845 3.16488 10.9213 2.84096 10.797 2.53869C10.6727 2.23642 10.4897 1.9618 10.2586 1.73069C10.0275 1.49958 9.75288 1.31658 9.45061 1.19227C9.14834 1.06796 8.82443 1.00481 8.4976 1.00646C8.17077 1.00811 7.84751 1.07453 7.54651 1.20189C7.24551 1.32925 6.97275 1.51501 6.74399 1.74844L1.74844 6.74399C1.51501 6.97275 1.32925 7.24551 1.20189 7.54651C1.07453 7.84751 1.00811 8.17077 1.00646 8.4976C1.00481 8.82443 1.06796 9.14834 1.19227 9.45061C1.31658 9.75288 1.49958 10.0275 1.73069 10.2586C1.9618 10.4897 2.23642 10.6727 2.53869 10.797C2.84096 10.9213 3.16488 10.9845 3.49171 10.9829C3.81854 10.9812 4.1418 10.9148 4.4428 10.7874C4.7438 10.6601 5.01656 10.4743 5.24532 10.2409Z" stroke="var(--stroke-0, #009966)" stroke-width="0.999109" stroke-linecap="round" stroke-linejoin="round"/>
<path id="Vector_2" d="M4.24621 4.24621L7.74309 7.74309" stroke="var(--stroke-0, #009966)" stroke-width="0.999109" stroke-linecap="round" stroke-linejoin="round"/>
</g>
<defs>
<clipPath id="clip0_112_470">
<rect width="11.9893" height="11.9893" fill="white"/>
</clipPath>
</defs>
</svg>
