<svg preserveAspectRatio="none" width="100%" height="100%" overflow="visible" style="display: block;" viewBox="0 0 15.9986 15.9986" fill="none" xmlns="http://www.w3.org/2000/svg">
<g id="Icon" clip-path="url(#clip0_125_62)">
<path id="Vector" d="M10.6658 13.9988V12.6656C10.6658 11.9584 10.3848 11.2802 9.88477 10.7801C9.38472 10.2801 8.7065 9.99915 7.99932 9.99915H3.99966C3.29247 9.99915 2.61426 10.2801 2.1142 10.7801C1.61415 11.2802 1.33322 11.9584 1.33322 12.6656V13.9988" stroke="var(--stroke-0, white)" stroke-width="1.33322" stroke-linecap="round" stroke-linejoin="round"/>
<path id="Vector_2" d="M5.99949 7.33271C7.47212 7.33271 8.66593 6.1389 8.66593 4.66627C8.66593 3.19363 7.47212 1.99983 5.99949 1.99983C4.52685 1.99983 3.33305 3.19363 3.33305 4.66627C3.33305 6.1389 4.52685 7.33271 5.99949 7.33271Z" stroke="var(--stroke-0, white)" stroke-width="1.33322" stroke-linecap="round" stroke-linejoin="round"/>
<path id="Vector_3" d="M14.6654 13.9988V12.6656C14.665 12.0748 14.4683 11.5009 14.1064 11.0339C13.7444 10.567 13.2376 10.2335 12.6656 10.0858" stroke="var(--stroke-0, white)" stroke-width="1.33322" stroke-linecap="round" stroke-linejoin="round"/>
<path id="Vector_4" d="M10.6658 2.08649C11.2393 2.23334 11.7477 2.56691 12.1107 3.03461C12.4738 3.50231 12.6708 4.07754 12.6708 4.6696C12.6708 5.26166 12.4738 5.83689 12.1107 6.30459C11.7477 6.77229 11.2393 7.10586 10.6658 7.25271" stroke="var(--stroke-0, white)" stroke-width="1.33322" stroke-linecap="round" stroke-linejoin="round"/>
</g>
<defs>
<clipPath id="clip0_125_62">
<rect width="15.9986" height="15.9986" fill="white"/>
</clipPath>
</defs>
</svg>
