<svg preserveAspectRatio="none" width="100%" height="100%" overflow="visible" style="display: block;" viewBox="0 0 23.995 23.995" fill="none" xmlns="http://www.w3.org/2000/svg">
<g id="Icon">
<path id="Vector" d="M21.9954 16.9165V19.9158C21.9965 20.1943 21.9395 20.4699 21.828 20.725C21.7164 20.9801 21.5528 21.2092 21.3476 21.3974C21.1424 21.5856 20.9002 21.729 20.6364 21.8182C20.3727 21.9074 20.0932 21.9405 19.8159 21.9154C16.7393 21.5811 13.7841 20.5299 11.1877 18.8461C8.772 17.3111 6.72393 15.263 5.18892 12.8473C3.49925 10.2391 2.44773 7.26948 2.11956 4.17913C2.09457 3.90265 2.12743 3.624 2.21604 3.36092C2.30465 3.09784 2.44706 2.85609 2.63422 2.65107C2.82137 2.44604 3.04917 2.28223 3.3031 2.17007C3.55704 2.05791 3.83154 1.99984 4.10914 1.99958H7.10852C7.59372 1.99481 8.06411 2.16663 8.432 2.48301C8.7999 2.7994 9.04019 3.23877 9.1081 3.71922C9.2347 4.67909 9.46947 5.62155 9.80795 6.52864C9.94247 6.88649 9.97158 7.2754 9.89184 7.64928C9.8121 8.02317 9.62686 8.36637 9.35805 8.6382L8.08831 9.90793C9.51157 12.411 11.584 14.4834 14.0871 15.9067L15.3568 14.6369C15.6286 14.3681 15.9718 14.1829 16.3457 14.1032C16.7196 14.0234 17.1085 14.0525 17.4664 14.187C18.3734 14.5255 19.3159 14.7603 20.2758 14.8869C20.7614 14.9554 21.205 15.2 21.522 15.5742C21.8391 15.9485 22.0076 16.4261 21.9954 16.9165Z" stroke="var(--stroke-0, #155DFC)" stroke-width="1.99958" stroke-linecap="round" stroke-linejoin="round"/>
</g>
</svg>
