<svg preserveAspectRatio="none" width="100%" height="100%" overflow="visible" style="display: block;" viewBox="0 0 23.995 23.995" fill="none" xmlns="http://www.w3.org/2000/svg">
<g id="Icon">
<path id="Vector" d="M19.9958 9.99791C19.9958 14.9899 14.458 20.1888 12.5984 21.7945C12.4251 21.9247 12.2143 21.9952 11.9975 21.9952C11.7807 21.9952 11.5699 21.9247 11.3966 21.7945C9.53701 20.1888 3.99917 14.9899 3.99917 9.99791C3.99917 7.87663 4.84185 5.84222 6.34182 4.34224C7.8418 2.84226 9.87621 1.99958 11.9975 1.99958C14.1188 1.99958 16.1532 2.84226 17.6532 4.34224C19.1532 5.84222 19.9958 7.87663 19.9958 9.99791Z" stroke="var(--stroke-0, #155DFC)" stroke-width="1.99958" stroke-linecap="round" stroke-linejoin="round"/>
<path id="Vector_2" d="M11.9975 12.9973C13.654 12.9973 14.9969 11.6544 14.9969 9.99791C14.9969 8.34141 13.654 6.99854 11.9975 6.99854C10.341 6.99854 8.99812 8.34141 8.99812 9.99791C8.99812 11.6544 10.341 12.9973 11.9975 12.9973Z" stroke="var(--stroke-0, #155DFC)" stroke-width="1.99958" stroke-linecap="round" stroke-linejoin="round"/>
</g>
</svg>
