<svg preserveAspectRatio="none" width="100%" height="100%" overflow="visible" style="display: block;" viewBox="0 0 19.9986 19.9986" fill="none" xmlns="http://www.w3.org/2000/svg">
<g id="Icon" clip-path="url(#clip0_112_511)">
<path id="Vector" d="M18.1662 8.33273C18.5467 10.2003 18.2755 12.142 17.3978 13.8338C16.52 15.5257 15.0888 16.8655 13.3428 17.6298C11.5968 18.3942 9.6415 18.5368 7.80302 18.034C5.96455 17.5312 4.35401 16.4133 3.24 14.8668C2.12598 13.3202 1.57582 11.4385 1.68127 9.53547C1.78671 7.6324 2.54138 5.82299 3.81943 4.40899C5.09749 2.99499 6.82166 2.06188 8.70443 1.76525C10.5872 1.46862 12.5148 1.82642 14.1656 2.77897" stroke="var(--stroke-0, #009966)" stroke-width="1.66655" stroke-linecap="round" stroke-linejoin="round"/>
<path id="Vector_2" d="M7.49946 9.16601L9.99928 11.6658L18.332 3.33309" stroke="var(--stroke-0, #009966)" stroke-width="1.66655" stroke-linecap="round" stroke-linejoin="round"/>
</g>
<defs>
<clipPath id="clip0_112_511">
<rect width="19.9986" height="19.9986" fill="white"/>
</clipPath>
</defs>
</svg>
