<svg preserveAspectRatio="none" width="100%" height="100%" overflow="visible" style="display: block;" viewBox="0 0 23.998 23.998" fill="none" xmlns="http://www.w3.org/2000/svg">
<g id="Icon">
<path id="Vector" d="M10.4993 20.4984L20.4984 10.4993C20.9657 10.0414 21.3375 9.49542 21.5924 8.89293C21.8473 8.29045 21.9803 7.64341 21.9836 6.98922C21.9869 6.33503 21.8605 5.68668 21.6117 5.08165C21.3628 4.47663 20.9965 3.92693 20.534 3.46434C20.0714 3.00176 19.5217 2.63546 18.9166 2.38664C18.3116 2.13782 17.6633 2.0114 17.0091 2.01471C16.3549 2.01801 15.7078 2.15097 15.1054 2.40589C14.5029 2.66081 13.9569 3.03264 13.499 3.49987L3.49987 13.499C3.03264 13.9569 2.66081 14.5029 2.40589 15.1054C2.15097 15.7078 2.01801 16.3549 2.01471 17.0091C2.0114 17.6633 2.13782 18.3116 2.38664 18.9166C2.63546 19.5217 3.00176 20.0714 3.46434 20.534C3.92693 20.9965 4.47663 21.3628 5.08165 21.6117C5.68668 21.8605 6.33503 21.9869 6.98922 21.9836C7.64341 21.9803 8.29045 21.8473 8.89293 21.5924C9.49542 21.3375 10.0414 20.9657 10.4993 20.4984Z" stroke="var(--stroke-0, #009966)" stroke-width="1.99983" stroke-linecap="round" stroke-linejoin="round"/>
<path id="Vector_2" d="M8.49927 8.49927L15.4993 15.4993" stroke="var(--stroke-0, #009966)" stroke-width="1.99983" stroke-linecap="round" stroke-linejoin="round"/>
</g>
</svg>
