<svg preserveAspectRatio="none" width="100%" height="100%" overflow="visible" style="display: block;" viewBox="0 0 14.6653 14.6651" fill="none" xmlns="http://www.w3.org/2000/svg">
<path id="Vector" d="M13.4481 3.87459C13.8006 3.52224 13.9986 3.04431 13.9987 2.54594C13.9987 2.04757 13.8008 1.56959 13.4485 1.21715C13.0961 0.864708 12.6182 0.666672 12.1198 0.66661C11.6215 0.666547 11.1435 0.864463 10.791 1.21682L1.89446 10.1154C1.73969 10.2697 1.62523 10.4597 1.56116 10.6687L0.680565 13.5698C0.663337 13.6274 0.662035 13.6887 0.676799 13.747C0.691563 13.8053 0.721842 13.8586 0.764422 13.9011C0.807002 13.9436 0.860297 13.9738 0.91865 13.9884C0.977004 14.0031 1.03824 14.0017 1.09586 13.9844L3.99762 13.1045C4.20638 13.041 4.39636 12.9272 4.5509 12.7732L13.4481 3.87459Z" stroke="var(--stroke-0, #155DFC)" stroke-width="1.33322" stroke-linecap="round" stroke-linejoin="round"/>
</svg>
