<svg preserveAspectRatio="none" width="100%" height="100%" overflow="visible" style="display: block;" viewBox="0 0 15.9986 15.9986" fill="none" xmlns="http://www.w3.org/2000/svg">
<g id="Icon" clip-path="url(#clip0_134_179)">
<path id="Vector" d="M6.9994 13.6655L13.6655 6.9994C13.977 6.69414 14.2249 6.33016 14.3948 5.92851C14.5648 5.52685 14.6534 5.09549 14.6556 4.65937C14.6578 4.22324 14.5735 3.79101 14.4077 3.38766C14.2418 2.9843 13.9976 2.61784 13.6892 2.30945C13.3808 2.00106 13.0143 1.75686 12.611 1.59098C12.2076 1.4251 11.7754 1.34082 11.3393 1.34302C10.9031 1.34523 10.4718 1.43386 10.0701 1.60381C9.66847 1.77376 9.30449 2.02164 8.99923 2.33313L2.33313 8.99923C2.02164 9.30449 1.77376 9.66847 1.60381 10.0701C1.43386 10.4718 1.34523 10.9031 1.34302 11.3393C1.34082 11.7754 1.4251 12.2076 1.59098 12.611C1.75686 13.0143 2.00106 13.3808 2.30945 13.6892C2.61784 13.9976 2.9843 14.2418 3.38766 14.4077C3.79101 14.5735 4.22324 14.6578 4.65937 14.6556C5.09549 14.6534 5.52685 14.5648 5.92851 14.3948C6.33016 14.2249 6.69414 13.977 6.9994 13.6655Z" stroke="var(--stroke-0, #4A5565)" stroke-width="1.33322" stroke-linecap="round" stroke-linejoin="round"/>
<path id="Vector_2" d="M5.66618 5.66618L10.3325 10.3325" stroke="var(--stroke-0, #4A5565)" stroke-width="1.33322" stroke-linecap="round" stroke-linejoin="round"/>
</g>
<defs>
<clipPath id="clip0_134_179">
<rect width="15.9986" height="15.9986" fill="white"/>
</clipPath>
</defs>
</svg>
