<svg preserveAspectRatio="none" width="100%" height="100%" overflow="visible" style="display: block;" viewBox="0 0 23.998 23.998" fill="none" xmlns="http://www.w3.org/2000/svg">
<g id="Icon">
<path id="Vector" d="M12.219 1.99983H11.779C11.2486 1.99983 10.7399 2.21052 10.3649 2.58557C9.98986 2.96061 9.77916 3.46927 9.77916 3.99966V4.17964C9.77881 4.53034 9.68623 4.87477 9.51073 5.1784C9.33522 5.48202 9.08296 5.73415 8.77925 5.9095L8.34929 6.15947C8.04528 6.335 7.70042 6.4274 7.34937 6.4274C6.99833 6.4274 6.65347 6.335 6.34946 6.15947L6.19947 6.07948C5.74057 5.81477 5.19539 5.74295 4.6836 5.87981C4.17181 6.01666 3.73523 6.35099 3.4697 6.80942L3.24972 7.18939C2.98501 7.64828 2.91319 8.19346 3.05005 8.70526C3.1869 9.21705 3.52124 9.65362 3.97966 9.91915L4.12965 10.0191C4.4319 10.1936 4.68322 10.4442 4.85864 10.7459C5.03405 11.0476 5.12746 11.39 5.12956 11.739V12.249C5.13096 12.6013 5.03922 12.9478 4.86363 13.2534C4.68804 13.5589 4.43483 13.8126 4.12965 13.9888L3.97966 14.0788C3.52124 14.3443 3.1869 14.7809 3.05005 15.2927C2.91319 15.8045 2.98501 16.3497 3.24972 16.8086L3.4697 17.1885C3.73523 17.647 4.17181 17.9813 4.6836 18.1181C5.19539 18.255 5.74057 18.1832 6.19947 17.9185L6.34946 17.8385C6.65347 17.663 6.99833 17.5706 7.34937 17.5706C7.70042 17.5706 8.04528 17.663 8.34929 17.8385L8.77925 18.0885C9.08296 18.2638 9.33522 18.5159 9.51073 18.8196C9.68623 19.1232 9.77881 19.4676 9.77916 19.8183V19.9983C9.77916 20.5287 9.98986 21.0373 10.3649 21.4124C10.7399 21.7874 11.2486 21.9981 11.779 21.9981H12.219C12.7493 21.9981 13.258 21.7874 13.633 21.4124C14.0081 21.0373 14.2188 20.5287 14.2188 19.9983V19.8183C14.2191 19.4676 14.3117 19.1232 14.4872 18.8196C14.6627 18.5159 14.915 18.2638 15.2187 18.0885L15.6487 17.8385C15.9527 17.663 16.2975 17.5706 16.6486 17.5706C16.9996 17.5706 17.3445 17.663 17.6485 17.8385L17.7985 17.9185C18.2574 18.1832 18.8026 18.255 19.3143 18.1181C19.8261 17.9813 20.2627 17.647 20.5282 17.1885L20.7482 16.7986C21.0129 16.3397 21.0848 15.7945 20.9479 15.2827C20.8111 14.7709 20.4767 14.3343 20.0183 14.0688L19.8683 13.9888C19.5631 13.8126 19.3099 13.5589 19.1343 13.2534C18.9587 12.9478 18.867 12.6013 18.8684 12.249V11.749C18.867 11.3966 18.9587 11.0501 19.1343 10.7446C19.3099 10.439 19.5631 10.1853 19.8683 10.0091L20.0183 9.91915C20.4767 9.65362 20.8111 9.21705 20.9479 8.70526C21.0848 8.19346 21.0129 7.64828 20.7482 7.18939L20.5282 6.80942C20.2627 6.35099 19.8261 6.01666 19.3143 5.87981C18.8026 5.74295 18.2574 5.81477 17.7985 6.07948L17.6485 6.15947C17.3445 6.335 16.9996 6.4274 16.6486 6.4274C16.2975 6.4274 15.9527 6.335 15.6487 6.15947L15.2187 5.9095C14.915 5.73415 14.6627 5.48202 14.4872 5.1784C14.3117 4.87477 14.2191 4.53034 14.2188 4.17964V3.99966C14.2188 3.46927 14.0081 2.96061 13.633 2.58557C13.258 2.21052 12.7493 1.99983 12.219 1.99983Z" stroke="var(--stroke-0, #4A5565)" stroke-width="1.99983" stroke-linecap="round" stroke-linejoin="round"/>
<path id="Vector_2" d="M11.9992 14.9992C13.6561 14.9992 14.9992 13.6561 14.9992 11.9992C14.9992 10.3424 13.6561 8.99923 11.9992 8.99923C10.3424 8.99923 8.99923 10.3424 8.99923 11.9992C8.99923 13.6561 10.3424 14.9992 11.9992 14.9992Z" stroke="var(--stroke-0, #4A5565)" stroke-width="1.99983" stroke-linecap="round" stroke-linejoin="round"/>
</g>
</svg>
