<svg preserveAspectRatio="none" width="100%" height="100%" overflow="visible" style="display: block;" viewBox="0 0 19.9983 19.9983" fill="none" xmlns="http://www.w3.org/2000/svg">
<g id="Icon" clip-path="url(#clip0_134_167)">
<path id="Vector" d="M9.99915 1.66652V18.3318" stroke="var(--stroke-0, white)" stroke-width="1.66652" stroke-linecap="round" stroke-linejoin="round"/>
<path id="Vector_2" d="M14.1655 4.16631H7.91599C7.14251 4.16631 6.40071 4.47358 5.85377 5.02051C5.30684 5.56744 4.99957 6.30925 4.99957 7.08273C4.99957 7.85621 5.30684 8.59801 5.85377 9.14495C6.40071 9.69188 7.14251 9.99915 7.91599 9.99915H12.0823C12.8558 9.99915 13.5976 10.3064 14.1445 10.8533C14.6915 11.4003 14.9987 12.1421 14.9987 12.9156C14.9987 13.689 14.6915 14.4308 14.1445 14.9778C13.5976 15.5247 12.8558 15.832 12.0823 15.832H4.99957" stroke="var(--stroke-0, white)" stroke-width="1.66652" stroke-linecap="round" stroke-linejoin="round"/>
</g>
<defs>
<clipPath id="clip0_134_167">
<rect width="19.9983" height="19.9983" fill="white"/>
</clipPath>
</defs>
</svg>
