<svg preserveAspectRatio="none" width="100%" height="100%" overflow="visible" style="display: block;" viewBox="0 0 19.9986 19.9986" fill="none" xmlns="http://www.w3.org/2000/svg">
<g id="Icon" clip-path="url(#clip0_112_449)">
<path id="Vector" d="M18.332 9.99928H16.2655C15.9013 9.9985 15.5469 10.117 15.2565 10.3367C14.9661 10.5564 14.7556 10.8652 14.6573 11.2159L12.6991 18.182C12.6865 18.2253 12.6601 18.2633 12.6241 18.2903C12.588 18.3174 12.5442 18.332 12.4991 18.332C12.454 18.332 12.4102 18.3174 12.3741 18.2903C12.338 18.2633 12.3117 18.2253 12.2991 18.182L7.69944 1.81654C7.68682 1.77326 7.66051 1.73525 7.62445 1.70821C7.58839 1.68117 7.54453 1.66655 7.49946 1.66655C7.45439 1.66655 7.41053 1.68117 7.37447 1.70821C7.33841 1.73525 7.31209 1.77326 7.29947 1.81654L5.34128 8.7827C5.24334 9.13197 5.03412 9.43975 4.74538 9.65932C4.45663 9.87888 4.10414 9.99824 3.7414 9.99928H1.66655" stroke="var(--stroke-0, #155DFC)" stroke-width="1.66655" stroke-linecap="round" stroke-linejoin="round"/>
</g>
<defs>
<clipPath id="clip0_112_449">
<rect width="19.9986" height="19.9986" fill="white"/>
</clipPath>
</defs>
</svg>
