<svg preserveAspectRatio="none" width="100%" height="100%" overflow="visible" style="display: block;" viewBox="0 0 23.995 23.995" fill="none" xmlns="http://www.w3.org/2000/svg">
<g id="Icon">
<path id="Vector" d="M3.99917 1.99958V21.9954L5.99875 20.9956L7.99833 21.9954L9.99791 20.9956L11.9975 21.9954L13.9971 20.9956L15.9967 21.9954L17.9962 20.9956L19.9958 21.9954V1.99958L17.9962 2.99937L15.9967 1.99958L13.9971 2.99937L11.9975 1.99958L9.99791 2.99937L7.99833 1.99958L5.99875 2.99937L3.99917 1.99958Z" stroke="var(--stroke-0, #E17100)" stroke-width="1.99958" stroke-linecap="round" stroke-linejoin="round"/>
<path id="Vector_2" d="M15.9967 7.99833H9.99791C9.46759 7.99833 8.95899 8.209 8.584 8.584C8.209 8.95899 7.99833 9.46759 7.99833 9.99791C7.99833 10.5282 8.209 11.0368 8.584 11.4118C8.95899 11.7868 9.46759 11.9975 9.99791 11.9975H13.9971C14.5274 11.9975 15.036 12.2082 15.411 12.5832C15.786 12.9582 15.9967 13.4668 15.9967 13.9971C15.9967 14.5274 15.786 15.036 15.411 15.411C15.036 15.786 14.5274 15.9967 13.9971 15.9967H7.99833" stroke="var(--stroke-0, #E17100)" stroke-width="1.99958" stroke-linecap="round" stroke-linejoin="round"/>
<path id="Vector_3" d="M11.9975 17.4964V6.49864" stroke="var(--stroke-0, #E17100)" stroke-width="1.99958" stroke-linecap="round" stroke-linejoin="round"/>
</g>
</svg>
