<svg preserveAspectRatio="none" width="100%" height="100%" overflow="visible" style="display: block;" viewBox="0 0 27.9914 27.9914" fill="none" xmlns="http://www.w3.org/2000/svg">
<g id="Icon">
<path id="Vector" d="M17.4946 2.33262H6.99786C6.37921 2.33262 5.7859 2.57838 5.34845 3.01583C4.911 3.45328 4.66524 4.04659 4.66524 4.66524V23.3262C4.66524 23.9448 4.911 24.5382 5.34845 24.9756C5.7859 25.4131 6.37921 25.6588 6.99786 25.6588H20.9936C21.6122 25.6588 22.2055 25.4131 22.643 24.9756C23.0804 24.5382 23.3262 23.9448 23.3262 23.3262V8.16417L17.4946 2.33262Z" stroke="var(--stroke-0, white)" stroke-width="2.33262" stroke-linecap="round" stroke-linejoin="round"/>
<path id="Vector_2" d="M16.3283 2.33262V6.99786C16.3283 7.61651 16.5741 8.20982 17.0115 8.64727C17.449 9.08472 18.0423 9.33048 18.661 9.33048H23.3262" stroke="var(--stroke-0, white)" stroke-width="2.33262" stroke-linecap="round" stroke-linejoin="round"/>
<path id="Vector_3" d="M11.6631 10.4968H9.33048" stroke="var(--stroke-0, white)" stroke-width="2.33262" stroke-linecap="round" stroke-linejoin="round"/>
<path id="Vector_4" d="M18.661 15.162H9.33048" stroke="var(--stroke-0, white)" stroke-width="2.33262" stroke-linecap="round" stroke-linejoin="round"/>
<path id="Vector_5" d="M18.661 19.8273H9.33048" stroke="var(--stroke-0, white)" stroke-width="2.33262" stroke-linecap="round" stroke-linejoin="round"/>
</g>
</svg>
