<svg preserveAspectRatio="none" width="100%" height="100%" overflow="visible" style="display: block;" viewBox="0 0 13.9988 13.9988" fill="none" xmlns="http://www.w3.org/2000/svg">
<g id="Icon" clip-path="url(#clip0_134_139)">
<path id="Vector" d="M6.9994 1.16657V12.8322" stroke="var(--stroke-0, #4A5565)" stroke-width="1.16657" stroke-linecap="round" stroke-linejoin="round"/>
<path id="Vector_2" d="M9.91582 2.91642H5.54119C4.99976 2.91642 4.48049 3.1315 4.09764 3.51436C3.71479 3.89721 3.4997 4.41647 3.4997 4.95791C3.4997 5.49935 3.71479 6.01861 4.09764 6.40146C4.48049 6.78432 4.99976 6.9994 5.54119 6.9994H8.45761C8.99905 6.9994 9.51831 7.21449 9.90116 7.59734C10.284 7.9802 10.4991 8.49946 10.4991 9.04089C10.4991 9.58233 10.284 10.1016 9.90116 10.4844C9.51831 10.8673 8.99905 11.0824 8.45761 11.0824H3.4997" stroke="var(--stroke-0, #4A5565)" stroke-width="1.16657" stroke-linecap="round" stroke-linejoin="round"/>
</g>
<defs>
<clipPath id="clip0_134_139">
<rect width="13.9988" height="13.9988" fill="white"/>
</clipPath>
</defs>
</svg>
